<svg width="539" height="358" viewBox="0 0 539 358" fill="none" xmlns="http://www.w3.org/2000/svg">
<path d="M535.984 156.205C535.054 170.245 526.814 185.145 500.264 190.275C492.004 191.875 488.694 192.295 475.574 194.965C477.354 190.935 483.244 176.805 486.764 159.665C490.684 163.105 494.034 165.025 498.704 165.585C511.534 167.125 527.484 157.565 529.364 146.535C529.574 145.295 529.604 144.065 529.474 142.835C532.014 147.245 534.354 151.835 535.984 156.205C536.884 142.625 530.914 129.845 528.054 127.545C528.028 127.524 527.999 127.508 527.977 127.483C525.011 124.12 521.325 121.687 518.346 118.298C508.894 107.547 489.434 94.1718 465.914 86.9248C451.764 78.5248 434.894 78.2648 425.134 78.2448C421.904 78.2348 417.504 78.3448 411.824 79.1648C410.014 79.0548 408.184 78.9948 406.334 78.9848C369.304 46.4748 348.154 29.0448 321.914 17.3648C299.654 7.45477 263.374 -8.69524 227.774 5.74476C186.564 22.4648 157.494 75.6648 172.264 101.885C182.564 120.155 214.664 126.315 222.414 117.165C231.914 105.975 198.654 79.1848 207.294 48.6148C213.424 26.9748 238.094 12.1148 258.794 8.27476C294.474 1.65476 326.264 26.3248 366.904 57.8648C376.614 65.3948 384.294 72.1648 392.734 79.6548C390.544 79.8748 388.324 80.1848 386.094 80.5548C363.864 84.2648 347.934 94.9648 316.974 116.215C293.974 132.005 268.764 151.715 205.304 208.985C163.454 246.745 151.814 258.575 129.244 260.785C128.344 260.875 127.424 260.945 126.494 260.995C118.624 253.805 109.334 245.595 97.2338 235.585C79.2538 220.695 78.2338 220.995 69.0038 212.225C64.7038 208.135 61.2338 204.565 58.2938 201.485C59.8238 188.025 65.4638 174.425 72.3038 162.525C74.7038 161.975 77.3238 161.365 80.2038 160.695C157.584 142.645 163.714 137.435 166.184 131.665C170.874 120.715 164.264 110.565 153.894 104.105C134.784 92.1748 106.184 112.265 98.0238 117.995C94.5438 120.435 80.7238 130.495 68.9438 150.445C63.3838 151.595 59.4038 152.555 56.6638 153.455C37.3538 159.815 -0.436191 168.345 0.00380894 193.865C0.0638089 197.075 1.04381 200.705 2.59381 204.495C3.10381 190.565 10.8938 175.645 37.2038 170.045C45.3938 168.315 48.6838 167.825 61.6838 164.935C60.1738 168.595 55.5638 180.495 52.4638 195.355C47.0338 189.755 43.3138 186.745 37.3738 185.915C24.5538 184.115 8.28381 193.445 6.07381 204.535C5.41381 207.875 6.04381 211.235 7.63381 214.555C5.69381 211.205 3.92381 207.785 2.59381 204.495C2.09381 217.985 8.41381 230.525 11.3338 232.755C19.2138 238.775 22.9038 241.165 23.9238 240.995C33.7038 249.685 48.1538 258.795 65.0038 264.845C80.6338 279.925 103.364 279.875 115.344 279.675C118.974 279.615 124.084 279.375 130.814 278.115C164.934 309.625 185.144 326.865 210.294 338.755C232.314 349.175 268.234 366.155 304.344 352.275C346.164 336.205 376.874 283.125 362.834 256.405C353.044 237.795 321.044 230.965 312.994 240.035C303.144 251.145 335.714 278.785 326.144 309.445C319.364 331.145 294.194 345.665 273.314 349.135C237.344 355.125 206.194 329.635 166.374 297.055C157.204 289.555 149.894 282.805 142.004 275.415C143.484 274.975 145.024 274.495 146.614 273.965C147.004 273.915 147.404 273.865 147.794 273.805C170.194 270.495 186.484 260.015 218.154 239.185C241.684 223.705 267.534 204.315 332.854 147.785C375.924 110.515 387.944 98.8148 410.644 97.0148C411.224 96.9648 411.814 96.9248 412.414 96.9048C419.434 102.885 427.574 109.615 437.594 117.485C455.954 131.905 456.954 131.585 466.414 140.105C472.454 145.535 476.904 150.045 480.534 153.675C479.444 168.685 472.864 184.005 464.854 197.185C462.434 197.695 459.784 198.265 456.874 198.885C378.754 215.595 372.444 220.725 369.804 226.495C364.784 237.445 371.104 247.805 381.314 254.525C400.134 266.915 429.404 247.215 437.754 241.595C441.314 239.195 455.474 229.325 467.854 209.435C473.474 208.385 477.494 207.485 480.264 206.625C499.814 200.585 537.954 192.715 538.264 166.975C538.304 163.735 537.424 160.055 535.984 156.205ZM92.7138 134.585C98.6538 128.185 121.624 103.445 142.954 109.745C152.684 112.625 167.564 124.425 166.084 130.885C164.594 137.365 147.124 136.465 115.814 141.935C101.764 144.385 90.5938 146.345 81.7638 147.975C85.5738 142.745 89.3538 138.205 92.7138 134.585ZM49.9038 249.035C38.4838 242.425 19.7438 231.585 10.8338 219.755C10.8238 219.765 10.8138 219.775 10.8138 219.795C10.7338 219.675 10.6638 219.555 10.5838 219.425C10.6638 219.535 10.7438 219.645 10.8338 219.755C13.2838 213.785 28.8638 214.555 34.4738 214.835C39.8138 215.105 44.8338 215.915 49.6238 217.195C49.1038 229.385 50.5838 241.865 55.9538 252.505C53.7838 251.275 51.7638 250.115 49.9038 249.035ZM65.4638 235.075C62.4238 230.435 60.3938 225.525 59.2038 220.475C78.3238 228.485 94.0638 243.925 111.904 260.575C94.1838 258.495 75.6738 250.645 65.4638 235.075ZM427.294 97.4648C445.234 99.7648 463.924 108.045 473.844 124.165C475.494 126.855 476.824 129.625 477.844 132.455C459.514 125.805 444.124 112.405 427.294 97.4648ZM484.384 103.255C494.014 108.525 508.794 116.615 518.804 125.845C520.104 127.865 521.674 130.255 523.364 132.875C519.414 137.425 505.894 137.015 500.764 136.855C496.844 136.735 493.094 136.325 489.464 135.635C489.534 123.465 487.304 111.365 480.904 101.355C482.114 102.015 483.284 102.655 484.384 103.255ZM443.564 224.965C437.424 231.305 413.664 255.805 392.464 249.045C382.784 245.955 368.214 233.775 369.884 227.295C371.574 220.785 389.054 222.025 420.614 217.105C434.774 214.895 446.034 213.145 454.934 211.675C450.964 216.865 447.034 221.385 443.564 224.965Z" fill="#FFFEF9"/>
</svg>
