<svg width="346" height="520" viewBox="0 0 346 520" fill="none" xmlns="http://www.w3.org/2000/svg">
<path d="M340.249 225.944C324.734 185.546 273.458 155.879 247.646 169.451C229.671 178.903 223.08 209.817 231.846 217.579C242.566 227.105 269.265 195.643 298.879 204.884C319.844 211.432 333.859 235.745 337.217 255.906C342.994 290.643 318.386 320.732 286.913 359.197C279.668 368.058 273.141 375.113 266.012 382.739C265.6 381.324 265.135 379.845 264.628 378.324C264.575 377.933 264.523 377.542 264.459 377.152C261.259 355.512 251.13 339.775 231.021 309.189C216.066 286.461 197.341 261.493 142.738 198.399C106.745 156.798 95.4438 145.191 93.7008 123.265C93.6588 122.705 93.6168 122.135 93.5948 121.564C99.3718 114.784 105.867 106.915 113.472 97.2415C127.403 79.4985 127.096 78.5375 135.324 69.4015C140.584 63.5715 144.935 59.2625 148.441 55.7665C162.931 56.8335 177.728 63.1805 190.454 70.9115C190.95 73.2455 191.489 75.8125 192.091 78.6215C208.239 154.072 213.193 160.155 218.759 162.711C229.342 167.559 239.343 161.454 245.838 151.6C257.804 133.413 238.772 105.151 233.344 97.0825C231.031 93.6395 221.494 79.9735 202.283 68.0065C201.259 62.5785 200.392 58.7015 199.569 56.0195C193.739 37.1465 186.135 0.29748 161.273 0.00147967C158.147 -0.0405203 154.598 0.814478 150.881 2.19848C164.431 3.10648 178.816 11.0705 183.78 36.7025C185.322 44.6865 185.734 47.8765 188.311 60.5505C184.424 58.8395 170.768 53.1365 154.208 49.7465C157.535 45.9545 159.394 42.7235 159.932 38.2135C161.411 25.8145 152.18 10.4155 141.534 8.60948C140.33 8.40848 139.116 8.37748 137.912 8.51448C142.179 6.05348 146.636 3.78248 150.871 2.19848C137.754 1.34348 125.418 7.09948 123.189 9.86648C123.036 10.0575 122.916 10.2765 122.736 10.4325C119.524 13.2095 117.574 16.2235 114.06 19.4175C103.816 28.7285 90.9118 47.3105 83.9538 69.8865C75.8428 83.5525 75.5888 99.8495 75.5678 109.27C75.5568 112.386 75.6628 116.631 76.4548 122.102C76.3598 123.855 76.2958 125.63 76.2858 127.425C44.8868 163.186 28.0518 183.633 16.7718 208.97C7.2028 230.463 -8.39619 265.517 5.54481 299.895C21.7038 339.701 73.0858 367.772 98.4118 353.504C116.05 343.566 121.996 312.557 113.166 305.069C102.351 295.891 76.4858 328.019 46.9558 319.676C26.0548 313.762 11.6908 289.935 7.98381 269.932C1.59381 235.47 25.4318 204.768 55.8908 165.522C63.1568 156.154 69.6948 148.729 76.9288 140.576C77.1508 142.688 77.4468 144.822 77.8058 146.976C81.3858 168.458 91.7258 183.846 112.247 213.735C127.498 235.956 146.529 260.301 201.85 321.599C238.319 362.018 249.736 373.266 251.879 395.064C251.964 395.941 252.038 396.817 252.08 397.715C245.141 405.319 237.22 414.286 227.546 425.977C213.161 443.351 213.446 444.333 204.976 453.247C201.026 457.398 197.572 460.756 194.594 463.587C181.582 462.108 168.454 456.659 156.964 450.058C156.436 447.745 155.855 445.21 155.2 442.422C137.774 367.689 132.746 361.764 127.17 359.377C116.598 354.857 106.797 361.236 100.545 371.248C89.0328 389.71 108.424 417.338 113.958 425.217C116.313 428.576 126.04 441.936 145.304 453.3C146.413 458.676 147.342 462.52 148.219 465.16C154.355 483.811 162.593 520.312 187.243 519.889C190.348 519.836 193.854 518.886 197.519 517.386C184.064 516.9 169.637 509.38 164.24 483.959C162.561 476.059 162.096 472.88 159.297 460.322C162.835 461.78 174.326 466.237 188.679 469.215C183.271 474.464 180.367 478.055 179.564 483.79C177.832 496.179 186.841 511.894 197.55 514.027C200.74 514.661 203.961 514.069 207.14 512.57C203.929 514.429 200.667 516.108 197.519 517.386C210.531 517.872 222.654 511.768 224.809 508.948C230.649 501.302 232.952 497.731 232.772 496.78C241.158 487.328 249.956 473.376 255.807 457.101C270.371 442.019 270.308 420.062 270.118 408.487C270.065 404.981 269.833 400.038 268.629 393.543C299.046 360.591 315.701 341.074 327.192 316.783C337.249 295.502 353.651 260.818 340.249 225.944ZM217.282 91.4765C223.408 97.4125 247.076 120.351 240.538 140.83C237.56 150.177 225.794 164.255 219.531 162.64C213.247 161.014 214.451 144.126 209.698 113.645C207.565 99.9685 205.864 89.0905 204.449 80.4935C209.466 84.3265 213.828 88.1175 217.282 91.4765ZM99.7328 52.0395C104.834 42.7345 112.65 28.4455 121.574 18.7815C123.528 17.5245 125.82 16.0145 128.344 14.3875C132.738 18.2105 132.347 31.2755 132.189 36.2285C132.073 40.0095 131.671 43.6325 131.017 47.1385C119.262 47.0645 107.56 49.2195 97.8958 55.4085C98.5288 54.2255 99.1518 53.1065 99.7328 52.0395ZM119.927 62.2315C122.525 60.6365 125.197 59.3585 127.933 58.3655C121.501 76.0665 108.563 90.9265 94.1358 107.191C96.3638 89.8605 104.348 71.8105 119.927 62.2315ZM129.992 430.34C123.813 424.616 99.9128 402.426 105.996 381.821C108.774 372.421 120.169 358.047 126.411 359.484C132.674 360.92 131.808 377.787 137.089 408.035C139.465 421.596 141.356 432.39 142.919 440.913C137.87 437.236 133.488 433.582 129.992 430.34ZM240.528 471.698C234.149 482.724 223.683 500.828 212.266 509.435C212.277 509.446 212.277 509.445 212.287 509.445C212.203 509.508 212.118 509.561 212.023 509.625C212.097 509.562 212.182 509.498 212.266 509.435C206.489 507.09 207.228 492.01 207.503 486.602C207.756 481.448 208.549 476.59 209.784 471.964C221.56 472.46 233.621 471.034 243.887 465.848C242.703 467.949 241.573 469.903 240.528 471.698ZM227.051 456.669C222.573 459.605 217.841 461.57 212.952 462.721C220.683 444.249 235.585 429.052 251.67 411.826C249.663 428.947 242.091 446.816 227.051 456.669Z" fill="#FFFEF9"/>
</svg>
