<svg width="534" height="437" viewBox="0 0 534 437" fill="none" xmlns="http://www.w3.org/2000/svg">
<path d="M191.592 183.904C188.985 198.238 151.455 211.263 129.528 198.296C98.0396 179.674 96.3086 106.021 129.528 63.3747C158.214 26.5487 206.222 21.4987 235.666 18.4007C274.513 14.3147 311.035 21.6727 384.079 36.3897C426.014 44.8387 461.756 54.1697 496.513 35.4907C502.537 32.2527 519.35 23.2177 517.913 15.5227C515.056 0.224734 439.561 -12.5373 385.878 21.9987C368.21 33.3657 357.381 46.9517 348.999 58.8767C305.456 120.827 304.819 169.11 277.94 253.163C237.354 380.083 193.967 410.216 177.646 420C165.07 427.539 140.941 441.552 115.135 434.857C62.8546 421.293 51.8186 335.223 51.2716 330.518C46.8396 292.379 58.5436 266.002 61.1656 260.359C66.2716 249.37 84.1696 210.855 111.537 211.787C126.379 212.293 139.498 218.959 141.22 233.329C142.128 240.906 138.831 250.11 68.3616 316.126C41.2316 341.542 39.0696 342.845 28.7846 352.105C-19.0254 395.15 30.6646 432.664 39.6646 433.828C91.8346 440.574 18.0776 423.034 4.11062 399.778C-11.8614 373.184 22.7316 341.246 39.1896 322.822C45.6846 315.551 61.9396 301.951 94.4476 274.751C124.075 249.963 143.003 240.299 140.631 232.571C138.267 224.87 115.435 221.493 103.443 224.381C77.1666 230.709 68.0266 270.711 65.6646 281.048C58.3966 312.857 54.5216 381.442 98.0456 403.377C125.08 417.001 159.323 407.067 180.798 391.684C203.203 375.634 208.272 356.115 229.37 290.943C261.368 192.097 275.915 156.038 290.534 125.44C310.204 84.2697 320.47 63.3297 341.618 45.9087C383.007 11.8147 432.395 10.6827 458.863 10.0757C481.636 9.55374 525.168 8.55574 532.492 28.2957C537.221 41.0417 526.245 60.7917 511.804 66.9727C500.149 71.9617 491.304 65.9437 462.333 59.7767C447.208 56.5567 446.346 57.5007 418.259 53.4807C362.827 45.5457 342.332 38.4557 307.624 33.6927C245.688 25.1927 197.238 18.5427 163.708 47.1847C144.25 63.8067 127.32 94.4467 134.025 120.942C143.499 158.37 194.785 166.349 191.592 183.904Z" fill="#FFFEF8"/>
</svg>
